# xmcd
#
# Track frame offsets:
#	150
#	18355
#	41995
#	60604
#	78572
#
# Disc length: 1303 seconds
#
# Revision: 0
# Processed by: cddbd v1.5.2PL0 Copyright (c) Steve Scherf et al.
# Submitted via: dBpowerAMP V4.0
#
DISCID=3b051505
DTITLE=Lara Avengoza - Listen
DYEAR=2008
DGENRE=Pop R&B
TTITLE0=More Than I Should
TTITLE1=Isang Linggo Na Naman
TTITLE2=My Favorite Story
TTITLE3=Lihim
TTITLE4=Hold On To My Love
EXTD=
EXTT0=
EXTT1=
EXTT2=
EXTT3=
EXTT4=
PLAYORDER=
